<svg xmlns="http://www.w3.org/2000/svg" viewBox="0 0 612 612">
  <path fill="#0c4b79" d="M612 510c0 56.1-45.9 102-102 102H102C45.9 612 0 566.1 0 510V102C0 45.9 45.9 0 102 0h408c56.1 0 102 45.9 102 102v408z"/>
  <path fill="#fff" d="M123.66 116.01c-4.222.016-7.66 3.476-7.66 7.713v107.68c0 4.247 3.454 7.683 7.69 7.683h320.253c4.264 0 7.486-3.44 7.69-7.682v-41.646h19.957V259H280.065c-.165 15.79-.105 37.244-.092 51.086H244.64v139.756c0 25.463 20.727 46.158 46.195 46.158 25.47 0 46.196-20.695 46.196-46.158V310.086h-32.647V283.39H496V165.308c-13.456.015-30.912.016-44.368.03v-41.614c0-4.247-3.44-7.714-7.69-7.714h-34.72v84.632c0 4.244-3.438 7.683-7.688 7.683s-7.622-3.438-7.72-7.683V116.01h-17.33v66.797c0 4.263-3.47 7.683-7.72 7.683s-7.565-3.422-7.69-7.683V116.01h-17.36v40.06c0 4.247-3.44 7.713-7.69 7.713s-7.482-3.472-7.69-7.713v-40.06H210.528c-4.25 0-7.433 3.475-7.72 7.713v28.902l-16.202-32.347c-1.293-2.615-3.987-4.372-6.895-4.27H123.66zm167.175 318.436c8.5 0 15.41 6.918 15.41 15.396 0 8.493-6.91 15.366-15.41 15.366-8.484 0-15.378-6.873-15.378-15.366 0-8.478 6.894-15.396 15.378-15.396z"/>
</svg>
