<svg xmlns="http://www.w3.org/2000/svg" viewBox="0 0 612 612">
  <path fill="#fff" d="M510 6c25.5 0 49.6 10 67.8 28.2S606 76.5 606 102v408c0 25.5-10 49.6-28.2 67.8S535.5 606 510 606H102c-25.5 0-49.6-10-67.8-28.2S6 535.5 6 510V102c0-25.5 10-49.6 28.2-67.8S76.5 6 102 6h408m0-6H102C45.9 0 0 45.9 0 102v408c0 56.1 45.9 102 102 102h408c56.1 0 102-45.9 102-102V102C612 45.9 566.1 0 510 0z"/>
  <path fill="#fff" d="M123.66 116.007c-4.222.016-7.66 3.476-7.66 7.713V231.4c0 4.248 3.454 7.684 7.69 7.684h320.253c4.264 0 7.486-3.44 7.69-7.683v-41.644h19.957v69.242H280.065c-.165 15.788-.105 37.244-.092 51.086H244.64V449.84c0 25.463 20.727 46.158 46.195 46.158 25.47 0 46.196-20.695 46.196-46.158V310.084h-32.647v-26.696H496V165.305c-13.456.015-30.912.015-44.368.03V123.72c0-4.247-3.44-7.713-7.69-7.713h-34.72v84.633c0 4.243-3.438 7.682-7.688 7.682s-7.622-3.438-7.72-7.682v-84.633h-17.33v66.797c0 4.264-3.47 7.683-7.72 7.683s-7.565-3.422-7.69-7.683v-66.797h-17.36v40.06c0 4.248-3.44 7.713-7.69 7.713s-7.482-3.47-7.69-7.713v-40.06H210.528c-4.25 0-7.433 3.476-7.72 7.713v28.902l-16.202-32.347c-1.293-2.615-3.987-4.372-6.895-4.268H123.66zm167.175 318.437c8.5 0 15.41 6.918 15.41 15.396 0 8.492-6.91 15.365-15.41 15.365-8.484 0-15.378-6.873-15.378-15.365 0-8.478 6.894-15.396 15.378-15.396z"/>
</svg>
